<svg xmlns="http://www.w3.org/2000/svg" viewBox="0 0 52 52"><defs><style>.cls-1{fill:#fff;}</style></defs><title>Asset 3</title><g id="Layer_2" data-name="Layer 2"><g id="Layer_1-2" data-name="Layer 1"><polygon class="cls-1" points="12.69 23.69 12.69 28.31 16.14 26 12.69 23.69"/><polygon class="cls-1" points="24.62 20.33 24.62 13.89 13.79 21.1 18.63 24.34 24.62 20.33"/><polygon class="cls-1" points="38.21 21.1 27.38 13.89 27.38 20.33 33.37 24.34 38.21 21.1"/><polygon class="cls-1" points="13.79 30.9 24.62 38.11 24.62 31.67 18.63 27.66 13.79 30.9"/><polygon class="cls-1" points="27.38 31.67 27.38 38.11 38.21 30.9 33.37 27.66 27.38 31.67"/><polygon class="cls-1" points="26 22.73 21.11 26 26 29.27 30.89 26 26 22.73"/><path class="cls-1" d="M26,0A26,26,0,1,0,52,26,26,26,0,0,0,26,0ZM42.08,30.9a1.36,1.36,0,0,1,0,.18v.06s0,.08,0,.12l0,.07,0,.1,0,.07,0,.09,0,.06-.06.08,0,.06-.07.07-.05.05-.08.07-.06,0,0,0-14.69,9.8a1.38,1.38,0,0,1-1.53,0L10.54,32l0,0-.06,0-.08-.07-.06-.05-.07-.07,0-.06-.06-.08,0-.06,0-.09,0-.07,0-.1,0-.07s0-.08,0-.12v-.06a1.37,1.37,0,0,1,0-.18V21.1a1.34,1.34,0,0,1,0-.18v-.06s0-.08,0-.12l0-.07,0-.1,0-.07,0-.09,0-.06.06-.08,0-.06.07-.07.06-.05.08-.07.06,0,0,0,14.69-9.8a1.38,1.38,0,0,1,1.53,0L41.46,20l0,0,.06,0,.08.07.05.05.07.07,0,.06.06.08,0,.06,0,.09,0,.07,0,.1,0,.07s0,.08,0,.12v.06a1.34,1.34,0,0,1,0,.18Z"/><polygon class="cls-1" points="39.31 28.31 39.31 23.69 35.86 26 39.31 28.31"/></g></g></svg>