<svg xmlns="http://www.w3.org/2000/svg" viewBox="0 0 53.32 52"><defs><style>.cls-1{fill:#fff;}</style></defs><title>Asset 2</title><g id="Layer_2" data-name="Layer 2"><g id="Layer_1-2" data-name="Layer 1"><path class="cls-1" d="M26.66,0a26.66,26.66,0,0,0-8.42,52c1.33.24,1.82-.58,1.82-1.29s0-2.31,0-4.53c-7.42,1.61-9-3.57-9-3.57-1.21-3.08-3-3.9-3-3.9C5.66,37,8.26,37,8.26,37a5.6,5.6,0,0,1,4.08,2.75c2.38,4.07,6.24,2.9,7.76,2.22a5.7,5.7,0,0,1,1.69-3.56c-5.92-.67-12.14-3-12.14-13.18a10.3,10.3,0,0,1,2.74-7.15,9.59,9.59,0,0,1,.26-7.06s2.24-.72,7.33,2.73a25.27,25.27,0,0,1,13.35,0c5.09-3.45,7.32-2.73,7.32-2.73a9.57,9.57,0,0,1,.27,7.06,10.29,10.29,0,0,1,2.74,7.15c0,10.24-6.23,12.49-12.17,13.15a6.36,6.36,0,0,1,1.81,4.94c0,3.56,0,6.44,0,7.31,0,.71.48,1.54,1.83,1.28A26.66,26.66,0,0,0,26.66,0Z"/></g></g></svg>