<svg xmlns="http://www.w3.org/2000/svg" viewBox="0 0 52 52"><defs><style>.cls-1{fill:#fff;}</style></defs><title>Asset 1</title><g id="Layer_2" data-name="Layer 2"><g id="Layer_1-2" data-name="Layer 1"><path class="cls-1" d="M26,0A26,26,0,1,0,52,26,26,26,0,0,0,26,0ZM17.42,40.43H11V19.72h6.44ZM14.21,16.89a3.73,3.73,0,1,1,3.73-3.73A3.73,3.73,0,0,1,14.21,16.89ZM41.53,40.43H35.1V30.36c0-2.4,0-5.49-3.34-5.49s-3.86,2.62-3.86,5.32V40.43H21.46V19.72h6.17v2.83h.09a6.76,6.76,0,0,1,6.09-3.34c6.52,0,7.72,4.29,7.72,9.86Z"/></g></g></svg>