<svg xmlns="http://www.w3.org/2000/svg" viewBox="0 0 41.25 104.62"><defs><style>.cls-1{fill:#58595b;}</style></defs><title>Asset 2</title><g id="Layer_2" data-name="Layer 2"><g id="Layer_1-2" data-name="Layer 1"><path class="cls-1" d="M40.4,9.84a40.23,40.23,0,0,1-.92,4.73A11.26,11.26,0,0,1,37,19.3a66.81,66.81,0,0,0-6.83,11.29L24.39,42.66a14.71,14.71,0,0,0-1.84,8,25.87,25.87,0,0,0,1.84,8q2.1,5.25,4.59,10.24t5.38,9.71a67.82,67.82,0,0,1,5.77,11.82q3.94,9.71-6,13.13a9.53,9.53,0,0,1-2.36.65q-1.05.14-2.36.39-5.51,0-7.61-4.46l-3.15-7.08q-3.68-8.4-7.74-16.54T2.33,60.78A16,16,0,0,1,.5,48.43q1.31-3.67,2.76-7.08A31.54,31.54,0,0,1,6.8,35,18.58,18.58,0,0,0,8.51,31.9a7.17,7.17,0,0,0,.39-3.67,8.18,8.18,0,0,1,2.36-6,27.19,27.19,0,0,0,3.94-5.64q1.58-3,2.89-6.17.79-1.84,1.57-3.55c.53-1.14,1.14-2.32,1.84-3.55Q23.6-.66,28.33.13q2.1.53,3.8.92T35.41,2a7.81,7.81,0,0,1,3.94,2.63Q40.4,6.17,40.4,9.84ZM5.22,49.23a1.24,1.24,0,0,0-.79,1.83c0,.52.26.62.79.26Q6,51.07,6,49.75C6,49.4,5.75,49.23,5.22,49.23Zm8.66,1a4.77,4.77,0,0,1,3,2A3.73,3.73,0,0,1,17.56,55c-.18,1.22,0,2,.39,2.36a7.44,7.44,0,0,0,2.23,1,14.39,14.39,0,0,1-.66-5,17.49,17.49,0,0,0-.39-4.73,12.41,12.41,0,0,0,.26-2.36A12.06,12.06,0,0,1,19.66,44c.17-.88.13-1.36-.13-1.45a5.38,5.38,0,0,0-1.44-.13,4.57,4.57,0,0,0-2.36,1.32q-1.84,1.84-3.41,0a2.35,2.35,0,0,1,1.31-.66c.52-.09.7-.56.52-1.44a5.3,5.3,0,0,0-.92-2.36c-.26-.17-1.09,0-2.49.52a4.59,4.59,0,0,1-1.31.39,2.35,2.35,0,0,0-1.31.66c.35.35.52.62.52.79.7.88,1,1.44.92,1.7A6.9,6.9,0,0,1,7.85,45l-1.31.65a1.47,1.47,0,0,0-.79,1.45l2.36.79a3.22,3.22,0,0,0,1.18-.26,1,1,0,0,1,1.18.26q.53.79.13,1.32a6.89,6.89,0,0,0-.66,1c-.7,1-.44,1.75.79,2.1h1.84c1.05.18,1.57,0,1.57-.52A5.06,5.06,0,0,0,13.89,50.27ZM9.95,64.71c0-.35-.09-.52-.26-.52H9.16l.26.52Zm2.1-7.35c.87,0,1.31-.62,1.31-1.84,0-.87-.35-1.22-1.05-1-1.05,0-1.57.62-1.57,1.83C10.74,57,11.17,57.36,12.05,57.36Zm.79,8.4c-.88.18-1.49,1-1.84,2.63a.93.93,0,0,0,.79.79,2.5,2.5,0,0,1,1.44-.65c.61-.09.83-.48.66-1.18a4.44,4.44,0,0,0-.13-1C13.67,65.94,13.36,65.76,12.84,65.76Zm.79-29.93a.7.7,0,0,0,.79-.79q0-1-.79-.79c-.53,0-.79.18-.79.52A1,1,0,0,0,13.63,35.84ZM14.94,60c0-.53-.18-.79-.53-.79-.52-.17-1,.09-1.31.79,0,.18.17.44.53.79.35.18.61.13.79-.13A4.22,4.22,0,0,1,14.94,60ZM17,69.18a1.7,1.7,0,0,0,.79-1.84c0-.35-.18-.35-.53,0A1.46,1.46,0,0,0,17,69.18Zm2.89-27.3a3.88,3.88,0,0,0,.13-2.63c-.26-.87.13-1.58,1.18-2.1a13.51,13.51,0,0,1-4.2.79,4.82,4.82,0,0,0,1.31,2.23A10,10,0,0,1,19.92,41.87Zm-2.1-13.39c.87-.7,1.22-1.4,1.05-2.1l-.26-.26c-.52.18-.79.48-.79.92a2.66,2.66,0,0,1-.26,1.18ZM21.5,81.25c-.53.53-.35.79.52.79.7,0,.87-.18.52-.53,0-.35-.13-.52-.39-.52a.9.9,0,0,0-.65.26,1.68,1.68,0,0,1,.39-2.1,3.57,3.57,0,0,0,1.18-1.84A17.17,17.17,0,0,1,21.89,76a5.34,5.34,0,0,0-1.71-1.31c-.35-.35-.62-.43-.79-.26-.52.52-.52,1,0,1.31.7.35,1,.71.79,1.05a4.11,4.11,0,0,1-.79,1q-2.11,1.85,0,3.15a1.45,1.45,0,0,0,1.05.13A1.52,1.52,0,0,1,21.5,81.25ZM19.4,65.5a1.07,1.07,0,0,0-.26.79l.52.52c.35,0,.53-.26.53-.79C20.19,65.68,19.92,65.5,19.4,65.5Zm3.41-.26a.52.52,0,0,1-.4-.14A.55.55,0,0,0,22,65l-.52.27a1,1,0,0,0,1,.79v-.26A.74.74,0,0,1,22.81,65.24Zm.26-42c0-.17-.18-.44-.53-.79-.35,0-.52.26-.52.79s.17.79.52.79S23.08,23.76,23.08,23.23Zm0,3.68-.53.26c-.52.88-.31,1.36.66,1.44s1.27.57.92,1.45c-.35.35-.18.52.52.52a.46.46,0,0,0,.52-.52c.35-.53.22-1.18-.39-2S23.6,26.91,23.08,26.91Zm.79,65.9h0A3.44,3.44,0,0,0,23.6,95c.17.62.79.92,1.84.92a1.14,1.14,0,0,1,.92.52c.26.35.57.18.92-.52.17-.7-.18-1.32-1.05-1.84a1.2,1.2,0,0,0-1.31-.26C24.39,94,24,93.68,23.86,92.8Zm4.73-3.42a2.56,2.56,0,0,0,.52-1.83c.53-.88.44-1.49-.26-1.84a3,3,0,0,0-1.31.26c-.7.35-.88,1-.52,1.84A1.39,1.39,0,0,0,28.59,89.39Zm1.31-10c0-.35-.26-.52-.79-.52a1,1,0,0,0-1.05.79c0,.35.26.52.79.52Q29.37,80.2,29.9,79.42Zm-.53-62.75a17.57,17.57,0,0,1,4.2-7.61,11.84,11.84,0,0,0-2.23-.26A1.6,1.6,0,0,0,29.9,9.84,10,10,0,0,0,28.46,13,4.8,4.8,0,0,0,29.38,16.67Zm2.36-8.92A5.86,5.86,0,0,1,33.58,8c.53.18,1-.09,1.31-.79.53-.52.44-1-.26-1.31C33.4,5.73,32.44,6.34,31.74,7.75Zm1.57,6.56c0,.52.17.79.53.79a.23.23,0,0,0,.26-.26c0-.35-.26-.52-.79-.52,0-.7-.18-1.14-.52-1.31a.46.46,0,0,0-.53.52C32.26,14,32.61,14.31,33.31,14.31Z"/></g></g></svg>