<svg xmlns="http://www.w3.org/2000/svg" viewBox="0 0 473.09 473.09"><defs><style>.cls-1{fill:#fff;}</style></defs><title>Asset 1</title><g id="Layer_2" data-name="Layer 2"><g id="Layer_1-2" data-name="Layer 1"><path class="cls-1" d="M358.82,214q-9.57-8.33-23.9-8.35c-10.36,0-18.36,3-24,8.86s-9.29,13.8-10.75,23.88h69.47C368.84,227.72,365.26,219.61,358.82,214Z"/><path class="cls-1" d="M183.44,201.74c5.84-3.55,8.73-9.86,8.73-18.92,0-10-3.85-16.67-11.56-19.86-6.63-2.21-15.11-3.38-25.4-3.38H115.13v47.51h45.56C170.05,207.09,177.62,205.3,183.44,201.74Z"/><path class="cls-1" d="M182.87,246.38c-5.11-2.36-12.32-3.57-21.53-3.66H115.13V300.1h45.5c9.33,0,16.57-1.22,21.79-3.78,9.42-4.69,14.13-13.63,14.13-26.9C196.56,258.24,192,250.52,182.87,246.38Z"/><path class="cls-1" d="M236.55,0C105.91,0,0,105.9,0,236.55S105.91,473.09,236.55,473.09s236.55-105.9,236.55-236.55S367.19,0,236.55,0Zm54.69,131.13h86.71v21.53H291.24ZM232.36,306.86a59.65,59.65,0,0,1-15.22,16.91,58.82,58.82,0,0,1-24.31,10.81,149.85,149.85,0,0,1-30.39,2.91h-97V122.2h104c26.2.43,44.79,8,55.75,22.94q9.88,13.72,9.86,32.87c0,13.16-3.3,23.69-9.95,31.69q-5.55,6.73-16.41,12.26c11,4,19.28,10.32,24.84,19s8.39,19.18,8.39,31.53C241.93,285.29,238.77,296.74,232.36,306.86Zm82.91-9.29c6.12,3.89,13.54,5.8,22.23,5.8,9.16,0,16.63-2.33,22.38-7.07a34.14,34.14,0,0,0,8.29-10.59h41.15c-1.09,9.16-6,18.43-14.95,27.88q-20.7,22.47-58,22.51-30.77,0-54.33-19t-23.5-61.78q0-40.12,21.21-61.48t55.17-21.38q20.1,0,36.27,7.21a62.51,62.51,0,0,1,26.62,22.83,76.18,76.18,0,0,1,12.3,31.91c1.05,7,1.52,17.25,1.33,30.62H299.16Q300.09,288.26,315.27,297.57Z"/></g></g></svg>