<svg xmlns="http://www.w3.org/2000/svg" viewBox="0 0 15.27 38"><defs><style>.cls-1{fill:#58595b;}</style></defs><title>Asset 1</title><g id="Layer_2" data-name="Layer 2"><g id="Layer_1-2" data-name="Layer 1"><path class="cls-1" d="M15.27,18.66A4.42,4.42,0,0,1,15,20.21a12.83,12.83,0,0,1-.52,1.18q-1.41,3-2.88,6t-2.88,6l-.85,2A3.15,3.15,0,0,1,6.77,37a2.92,2.92,0,0,1-4,.47,7.42,7.42,0,0,1-1.13-.66A2.21,2.21,0,0,1,.44,34.14a6,6,0,0,1,.76-2.26q1.32-2.55,2.41-5.19T5.73,21.3a5,5,0,0,0,.24-1,4,4,0,0,0,0-1A37.72,37.72,0,0,0,3.8,12.38Q2.43,9.12.92,5.91C.79,5.6.67,5.3.54,5s-.25-.58-.38-.9A2.23,2.23,0,0,1,1,1.38,6,6,0,0,1,2.14.63,6.5,6.5,0,0,1,3.47.15a2.65,2.65,0,0,1,3.11.94A9.24,9.24,0,0,1,7.71,2.7l.94,1.7a82.52,82.52,0,0,0,4.81,9.44,21.13,21.13,0,0,1,.85,1.94q.38,1,.76,2C15.2,18.31,15.27,18.59,15.27,18.66ZM5.16,5.82q.19-.38,0-.57A.54.54,0,0,1,5,4.87q-.19-.38-.42-.33a1.75,1.75,0,0,0-.43.14q-.66.1-.47.75a.44.44,0,0,0,.14.33c.09.09.17.08.24,0,.19-.38.38-.5.57-.38A3.74,3.74,0,0,1,5.16,5.82ZM4.5,28.28a1.15,1.15,0,0,0,.66.76,9.39,9.39,0,0,0,1.23.38,4,4,0,0,1-.8-.85A.93.93,0,0,0,4.5,28.28Zm1-22.09a.44.44,0,0,0-.47-.28c-.32,0-.47.13-.47.38s.09.38.28.38a1.92,1.92,0,0,1,.38-.14C5.38,6.49,5.48,6.38,5.54,6.2ZM5,10a.73.73,0,0,1-.28.1c-.06,0-.09.06-.09.19s.09.19.28.19.38-.06.38-.19,0-.19,0-.19A.32.32,0,0,1,5,10ZM5.16,29.7c.06-.06,0-.09-.09-.09A.08.08,0,0,0,5,29.7a.1.1,0,0,0,0,.19A.17.17,0,0,0,5.16,29.7Zm.66-3c-.57,0-.85.22-.85.66A1,1,0,0,0,5.83,26.68ZM6.3,10.25a.82.82,0,0,0,.71,0,.79.79,0,0,0,.33-.38,2.65,2.65,0,0,0,.14-.52A.46.46,0,0,1,7.81,9a1,1,0,0,0-1-.33,1.23,1.23,0,0,1-1-.14l-.19.09c0,.19,0,.28.09.28.5.06.75.22.75.47a2.29,2.29,0,0,1-.19.85,1.17,1.17,0,0,1-.47.28c-.19.06-.25.25-.19.57a2.43,2.43,0,0,1,.57-.28C6.39,10.76,6.42,10.57,6.3,10.25ZM5.64,7.42A1.54,1.54,0,0,0,7,7.42l.33-.33c.09-.1.24-.08.43,0s.47.13.47-.19-.28-.28-.47-.09-.32.14-.38,0a2.66,2.66,0,0,0-.28-.33.49.49,0,0,0-.76.19A.91.91,0,0,1,6,7.09,3.42,3.42,0,0,0,5.64,7.42Zm0,25.68L5.83,33A.46.46,0,0,1,6,32.67c.09-.09.08-.2,0-.33H5.83c-.13,0-.19.16-.19.47Zm.66-1.32a9.76,9.76,0,0,0,1.09,0,1.23,1.23,0,0,0,.8-.52c.19-.12.22-.25.09-.38s-.25-.28-.38-.1a1.18,1.18,0,0,1-.71.47A1.93,1.93,0,0,0,6.3,31.78ZM7.9,25.64a.42.42,0,0,1,0,.19.41.41,0,0,0,0,.19c0,.13.09.19.28.19h.09c.19-.19.16-.28-.09-.28l-.28-.28a.74.74,0,0,1,.66-.85c.32-.12.5-.09.57.09a2.34,2.34,0,0,0,.28.57c.12.32,0,.47-.38.47a.43.43,0,0,0-.38.14c-.06.09,0,.2.1.33q.28.47-.1.57a.74.74,0,0,0-1,.09c-.25.13-.28.28-.09.47a2.28,2.28,0,0,0,1.13.57c.5,0,.69-.28.57-.85a.55.55,0,0,1,.38,0,.52.52,0,0,0,.38,0q.28,0,.28-.47a2.34,2.34,0,0,1-.38-.52c-.13-.22.09-.2.66,0a.25.25,0,0,0,.28-.28c.12-.25.12-.38,0-.38-.32.13-.51.06-.57-.19S10,25,9.79,25c-.38,0-.5-.11-.38-.33s.09-.36-.09-.42-.22-.32-.09-.57,0-.38-.38-.38-.46.13-.42.38a.55.55,0,0,1-.24.57,1.25,1.25,0,0,0-.33.24c-.09.09-.17,0-.24-.33s-.13-.44-.38-.19a2.18,2.18,0,0,0-.66,1c-.06.25,0,.38.19.38a.65.65,0,0,1,.47.19c.12.13.23.17.33.14A1.07,1.07,0,0,1,7.9,25.64ZM7.24,6a1.36,1.36,0,0,0-.57-.94C6.55,5.44,6.74,5.76,7.24,6Zm-.19,5.48A.77.77,0,0,0,7.34,11c-.13-.19-.25-.28-.38-.28s-.32.09-.19.28S6.86,11.48,7.05,11.48Zm.09,17.84c-.12.13-.16.22-.09.28a.17.17,0,0,0,.19.19c.12,0,.19-.09.19-.28C7.43,29.57,7.34,29.51,7.15,29.32Zm.66-6.42a.08.08,0,0,1-.09-.09.08.08,0,0,0-.09-.09c-.13,0-.19.09-.19.28l.09.09Q7.62,23.19,7.81,22.9Zm1-8.87.09.09L8.85,14v-.75a10.3,10.3,0,0,1,1.23.38.48.48,0,0,1-.19-.57c.06-.25-.09-.38-.47-.38a4.14,4.14,0,0,0-.66,0c-.19,0-.35.2-.47.52-.32,0-.47.13-.47.38s0,.3.09.33a1.47,1.47,0,0,0,.38,0A.47.47,0,0,0,8.85,14ZM8.37,29.32c-.13-.12-.19-.12-.19,0a.19.19,0,0,0,0,.14s0,0,0,0,.2-.08.24,0a.18.18,0,0,0,.14,0,.18.18,0,0,1-.14,0A.2.2,0,0,0,8.37,29.32Zm2.17-14.91A1,1,0,0,0,12,14.31V14c-.13-.12-.22-.16-.28-.09l-.52.19Zm1.79,3.21v-.19c0-.12,0-.19-.09-.19v.19l.19.19a.54.54,0,0,1,.09.38c0,.25.1.32.28.19a.24.24,0,0,0,0-.38c0-.12-.06-.16-.19-.09A.19.19,0,0,1,12.34,17.62Z"/></g></g></svg>