<svg xmlns="http://www.w3.org/2000/svg" viewBox="0 0 14.83 37.62"><defs><style>.cls-1{fill:#58595b;}</style></defs><title>Asset 2</title><g id="Layer_2" data-name="Layer 2"><g id="Layer_1-2" data-name="Layer 1"><path class="cls-1" d="M14.53,3.54a14.47,14.47,0,0,1-.33,1.7,4,4,0,0,1-.9,1.7A24,24,0,0,0,10.85,11L8.77,15.34a5.29,5.29,0,0,0-.66,2.88,9.3,9.3,0,0,0,.66,2.88q.75,1.89,1.65,3.68t1.94,3.49a24.39,24.39,0,0,1,2.08,4.25q1.42,3.49-2.17,4.72a3.43,3.43,0,0,1-.85.24l-.85.14A2.76,2.76,0,0,1,7.83,36L6.69,33.46q-1.32-3-2.78-5.95T.84,21.85a5.77,5.77,0,0,1-.66-4.44q.47-1.32,1-2.55A11.34,11.34,0,0,1,2.44,12.6a6.68,6.68,0,0,0,.61-1.13,2.58,2.58,0,0,0,.14-1.32A2.94,2.94,0,0,1,4,8a9.78,9.78,0,0,0,1.42-2Q6,4.86,6.5,3.73q.28-.66.57-1.27c.19-.41.41-.83.66-1.27A2.13,2.13,0,0,1,10.19,0l1.37.33q.61.14,1.18.33a2.81,2.81,0,0,1,1.42.94A3.55,3.55,0,0,1,14.53,3.54ZM1.88,17.7a.45.45,0,0,0-.28.66c0,.19.09.22.28.09s.28-.25.28-.57C2.16,17.76,2.07,17.7,1.88,17.7ZM5,18.08a1.72,1.72,0,0,1,1.09.71,1.34,1.34,0,0,1,.24,1c-.06.44,0,.72.14.85a2.68,2.68,0,0,0,.8.38A5.17,5.17,0,0,1,7,19.21a6.29,6.29,0,0,0-.14-1.7A4.46,4.46,0,0,0,7,16.66a4.34,4.34,0,0,1,.09-.85c.06-.32,0-.49,0-.52a1.93,1.93,0,0,0-.52,0,1.64,1.64,0,0,0-.85.47q-.66.66-1.23,0a.84.84,0,0,1,.47-.24c.19,0,.25-.2.19-.52a1.91,1.91,0,0,0-.33-.85c-.09-.06-.39,0-.9.19a1.65,1.65,0,0,1-.47.14.84.84,0,0,0-.47.24c.12.12.19.22.19.28.25.32.36.52.33.61a2.48,2.48,0,0,1-.61.61l-.47.24a.53.53,0,0,0-.28.52l.85.28a1.16,1.16,0,0,0,.42-.09.37.37,0,0,1,.42.09q.19.28,0,.47a2.48,2.48,0,0,0-.24.38c-.25.38-.16.63.28.76h.66c.38.06.57,0,.57-.19A1.82,1.82,0,0,0,5,18.08ZM3.58,23.27c0-.12,0-.19-.09-.19H3.29l.1.19Zm.76-2.64c.31,0,.47-.22.47-.66s-.13-.44-.38-.38-.57.22-.57.66C3.86,20.5,4,20.63,4.33,20.63Zm.28,3c-.32.06-.54.38-.66.94a.33.33,0,0,0,.28.28.9.9,0,0,1,.52-.24c.22,0,.3-.17.24-.43a1.6,1.6,0,0,0,0-.38C4.91,23.71,4.8,23.65,4.62,23.65ZM4.9,12.89a.25.25,0,0,0,.28-.28q0-.37-.28-.28c-.19,0-.28.06-.28.19A.37.37,0,0,0,4.9,12.89Zm.47,8.68c0-.19-.06-.28-.19-.28s-.35,0-.47.28c0,.06.06.16.19.28s.22,0,.28,0A1.52,1.52,0,0,1,5.37,21.57Zm.75,3.3a.61.61,0,0,0,.28-.66c0-.12-.06-.12-.19,0A.52.52,0,0,0,6.13,24.87Zm1-9.82a1.4,1.4,0,0,0,0-.94c-.1-.31,0-.57.42-.76a4.86,4.86,0,0,1-1.51.28,1.73,1.73,0,0,0,.47.8A3.6,3.6,0,0,1,7.16,15.06Zm-.75-4.81c.31-.25.44-.5.38-.76l-.1-.09c-.19.06-.28.17-.28.33a1,1,0,0,1-.09.42Zm1.32,19c-.19.19-.13.28.19.28s.31-.06.19-.19,0-.19-.14-.19a.32.32,0,0,0-.24.09.6.6,0,0,1,.14-.75,1.28,1.28,0,0,0,.42-.66,6.17,6.17,0,0,1-.42-.47,1.92,1.92,0,0,0-.61-.47c-.13-.12-.22-.16-.28-.09s-.19.35,0,.47.35.25.28.38A1.48,1.48,0,0,1,7,28q-.76.66,0,1.13a.52.52,0,0,0,.38,0A.55.55,0,0,1,7.73,29.21ZM7,23.55a.38.38,0,0,0-.09.28l.19.19c.13,0,.19-.09.19-.28S7.16,23.55,7,23.55Zm1.23-.09a.19.19,0,0,1-.14,0,.2.2,0,0,0-.14,0l-.19.1a.37.37,0,0,0,.38.28v-.09A.27.27,0,0,1,8.2,23.46ZM8.3,8.35c0-.06-.06-.16-.19-.28s-.19.09-.19.28.06.28.19.28S8.3,8.54,8.3,8.35Zm0,1.32-.19.09c-.19.32-.11.49.24.52s.46.2.33.52c-.13.13-.06.19.19.19a.17.17,0,0,0,.19-.19c.13-.19.08-.43-.14-.71S8.49,9.68,8.3,9.68Zm.28,23.69h0a1.24,1.24,0,0,0-.09.8c.06.22.28.33.66.33a.41.41,0,0,1,.33.19c.09.13.2.06.33-.19s-.06-.47-.38-.66A.43.43,0,0,0,9,33.75C8.77,33.81,8.64,33.68,8.58,33.37Zm1.7-1.23a.92.92,0,0,0,.19-.66c.19-.32.16-.53-.09-.66a1.07,1.07,0,0,0-.47.09c-.25.13-.32.35-.19.66A.5.5,0,0,0,10.28,32.14Zm.47-3.59c0-.12-.09-.19-.28-.19a.37.37,0,0,0-.38.28c0,.13.1.19.28.19S10.62,28.74,10.75,28.56ZM10.56,6a6.32,6.32,0,0,1,1.51-2.74,4.26,4.26,0,0,0-.8-.1.58.58,0,0,0-.52.38,3.61,3.61,0,0,0-.52,1.13A1.73,1.73,0,0,0,10.56,6Zm.85-3.21a2.11,2.11,0,0,1,.66.09c.19.06.35,0,.47-.28s.16-.35-.09-.47A1,1,0,0,0,11.41,2.78ZM12,5.15c0,.19.06.28.19.28a.08.08,0,0,0,.09-.09c0-.13-.09-.19-.28-.19,0-.25-.06-.41-.19-.47a.17.17,0,0,0-.19.19C11.6,5,11.73,5.15,12,5.15Z"/></g></g></svg>